<svg width="1100" height="760" viewBox="0 0 1100 760" fill="none" xmlns="http://www.w3.org/2000/svg">
  <defs>
    <linearGradient id="a" x1="82" y1="42" x2="1008" y2="704" gradientUnits="userSpaceOnUse">
      <stop stop-color="#0F2854"/>
      <stop offset=".52" stop-color="#07111F"/>
      <stop offset="1" stop-color="#111827"/>
    </linearGradient>
    <linearGradient id="b" x1="220" y1="126" x2="868" y2="672" gradientUnits="userSpaceOnUse">
      <stop stop-color="#FCD34D"/>
      <stop offset=".45" stop-color="#22C55E"/>
      <stop offset="1" stop-color="#38BDF8"/>
    </linearGradient>
  </defs>
  <rect width="1100" height="760" rx="36" fill="url(#a)"/>
  <circle cx="218" cy="170" r="142" fill="#FCD34D" opacity=".12"/>
  <circle cx="888" cy="584" r="182" fill="#22C55E" opacity=".1"/>
  <rect x="78" y="78" width="944" height="604" rx="28" fill="#050914" fill-opacity=".58" stroke="#2B4D77"/>
  <path d="M180 570V278h120v292H180Zm198 0V206h120v364H378Zm198 0V326h120v244H576Zm198 0V154h120v416H774Z" fill="#0F2854" stroke="#386799" stroke-width="5"/>
  <path d="M162 516c138-210 256-122 368-252 130-150 214-88 374-190" stroke="url(#b)" stroke-width="16" stroke-linecap="round"/>
  <circle cx="904" cy="74" r="22" fill="#FCD34D"/>
  <rect x="150" y="126" width="240" height="28" rx="14" fill="#F4F8FF"/>
  <rect x="150" y="176" width="340" height="16" rx="8" fill="#8CA6C8"/>
  <rect x="150" y="214" width="210" height="16" rx="8" fill="#8CA6C8"/>
  <rect x="720" y="108" width="228" height="76" rx="18" fill="#FCD34D" fill-opacity=".16" stroke="#FCD34D" stroke-opacity=".34"/>
  <text x="752" y="157" fill="#FFE9A6" font-family="Arial, sans-serif" font-size="30" font-weight="700">SEOmore</text>
  <rect x="720" y="220" width="228" height="76" rx="18" fill="#22C55E" fill-opacity=".14" stroke="#22C55E" stroke-opacity=".32"/>
  <text x="752" y="269" fill="#BBF7D0" font-family="Arial, sans-serif" font-size="26" font-weight="700">Founder-led</text>
</svg>
