<svg width="1100" height="740" viewBox="0 0 1100 740" fill="none" xmlns="http://www.w3.org/2000/svg">
  <defs>
    <linearGradient id="sbg" x1="92" y1="56" x2="1000" y2="668" gradientUnits="userSpaceOnUse">
      <stop stop-color="#111827"/>
      <stop offset=".5" stop-color="#081426"/>
      <stop offset="1" stop-color="#050914"/>
    </linearGradient>
    <linearGradient id="hot" x1="178" y1="138" x2="828" y2="614" gradientUnits="userSpaceOnUse">
      <stop stop-color="#F472B6"/>
      <stop offset=".48" stop-color="#A78BFA"/>
      <stop offset="1" stop-color="#38BDF8"/>
    </linearGradient>
  </defs>
  <rect width="1100" height="740" rx="36" fill="url(#sbg)"/>
  <circle cx="160" cy="168" r="140" fill="#F472B6" opacity=".12"/>
  <circle cx="904" cy="190" r="170" fill="#38BDF8" opacity=".12"/>
  <circle cx="850" cy="610" r="156" fill="#FCD34D" opacity=".1"/>
  <rect x="74" y="72" width="952" height="596" rx="30" fill="#07111F" stroke="#263F65"/>
  <rect x="122" y="126" width="260" height="198" rx="24" fill="#0F2854" stroke="#3A6EAA"/>
  <rect x="420" y="126" width="260" height="198" rx="24" fill="#0F2854" stroke="#3A6EAA"/>
  <rect x="718" y="126" width="260" height="198" rx="24" fill="#0F2854" stroke="#3A6EAA"/>
  <rect x="122" y="364" width="410" height="220" rx="24" fill="#081426" stroke="#263F65"/>
  <rect x="568" y="364" width="410" height="220" rx="24" fill="#081426" stroke="#263F65"/>
  <circle cx="252" cy="214" r="50" fill="url(#hot)"/>
  <circle cx="550" cy="214" r="50" fill="#FCD34D"/>
  <circle cx="848" cy="214" r="50" fill="#22C55E"/>
  <path d="M170 520c64-82 118-38 178-102 66-70 104-24 154-72" stroke="url(#hot)" stroke-width="12" stroke-linecap="round"/>
  <rect x="620" y="414" width="284" height="18" rx="9" fill="#DDE9F8"/>
  <rect x="620" y="464" width="214" height="18" rx="9" fill="#8CA6C8"/>
  <rect x="620" y="514" width="258" height="18" rx="9" fill="#38BDF8"/>
  <text x="222" y="230" fill="#FFFFFF" font-family="Arial, sans-serif" font-size="34" font-weight="800">in</text>
  <text x="520" y="230" fill="#050914" font-family="Arial, sans-serif" font-size="30" font-weight="900">YT</text>
  <text x="817" y="230" fill="#FFFFFF" font-family="Arial, sans-serif" font-size="30" font-weight="900">WA</text>
</svg>
