<svg width="512" height="512" viewBox="0 0 512 512" fill="none" xmlns="http://www.w3.org/2000/svg">
  <rect width="512" height="512" rx="112" fill="#050914"/>
  <rect x="42" y="42" width="428" height="428" rx="92" fill="url(#g)" stroke="#D7A84A" stroke-width="18"/>
  <path d="M143 336V164h86c42 0 74 26 74 68 0 28-15 50-39 61l55 43h-61l-48-38h-18v38h-49Zm49-82h34c16 0 28-9 28-24 0-14-12-23-28-23h-34v47Z" fill="#FFFFFF"/>
  <path d="M329 336V164h48v172h-48Z" fill="#FFE6A3"/>
  <defs>
    <linearGradient id="g" x1="78" y1="54" x2="430" y2="452" gradientUnits="userSpaceOnUse">
      <stop stop-color="#1C4D8D"/>
      <stop offset=".5" stop-color="#0F2854"/>
      <stop offset="1" stop-color="#07111F"/>
    </linearGradient>
  </defs>
</svg>
